<svg id="visual" viewBox="0 0 1920 1080" width="1920" height="1080" xmlns="http://www.w3.org/2000/svg" xmlns:xlink="http://www.w3.org/1999/xlink" version="1.1"><rect x="0" y="0" width="1920" height="1080" fill="#1a1a1d"></rect><defs><linearGradient id="grad1_0" x1="43.8%" y1="100%" x2="100%" y2="0%"><stop offset="14.444444444444446%" stop-color="#293f76" stop-opacity="1"></stop><stop offset="85.55555555555554%" stop-color="#293f76" stop-opacity="1"></stop></linearGradient></defs><defs><linearGradient id="grad1_1" x1="43.8%" y1="100%" x2="100%" y2="0%"><stop offset="14.444444444444446%" stop-color="#293f76" stop-opacity="1"></stop><stop offset="85.55555555555554%" stop-color="#ace674" stop-opacity="1"></stop></linearGradient></defs><defs><linearGradient id="grad1_2" x1="43.8%" y1="100%" x2="100%" y2="0%"><stop offset="14.444444444444446%" stop-color="#94b447" stop-opacity="1"></stop><stop offset="85.55555555555554%" stop-color="#ace674" stop-opacity="1"></stop></linearGradient></defs><defs><linearGradient id="grad2_0" x1="0%" y1="100%" x2="56.3%" y2="0%"><stop offset="14.444444444444446%" stop-color="#293f76" stop-opacity="1"></stop><stop offset="85.55555555555554%" stop-color="#293f76" stop-opacity="1"></stop></linearGradient></defs><defs><linearGradient id="grad2_1" x1="0%" y1="100%" x2="56.3%" y2="0%"><stop offset="14.444444444444446%" stop-color="#ace674" stop-opacity="1"></stop><stop offset="85.55555555555554%" stop-color="#293f76" stop-opacity="1"></stop></linearGradient></defs><defs><linearGradient id="grad2_2" x1="0%" y1="100%" x2="56.3%" y2="0%"><stop offset="14.444444444444446%" stop-color="#ace674" stop-opacity="1"></stop><stop offset="85.55555555555554%" stop-color="#94b447" stop-opacity="1"></stop></linearGradient></defs><g transform="translate(1920, 1080)"><path d="M-1026 0C-1022.6 -141.1 -1019.3 -282.3 -947.9 -392.6C-876.5 -503 -737.1 -582.6 -614.5 -614.5C-491.8 -646.3 -385.9 -630.4 -286.2 -691.1C-186.6 -751.7 -93.3 -888.8 0 -1026L0 0Z" fill="#ef6d65"></path><path d="M-684 0C-681.8 -94.1 -679.5 -188.2 -631.9 -261.8C-584.4 -335.3 -491.4 -388.4 -409.7 -409.7C-327.9 -430.9 -257.2 -420.3 -190.8 -460.7C-124.4 -501.1 -62.2 -592.6 0 -684L0 0Z" fill="#33e1ed"></path><path d="M-342 0C-340.9 -47 -339.8 -94.1 -316 -130.9C-292.2 -167.7 -245.7 -194.2 -204.8 -204.8C-163.9 -215.4 -128.6 -210.1 -95.4 -230.4C-62.2 -250.6 -31.1 -296.3 0 -342L0 0Z" fill="#fdee48"></path></g><g transform="translate(0, 0)"><path d="M1026 0C905.4 85.3 784.7 170.7 756.7 313.4C728.6 456.2 793.1 656.3 725.5 725.5C657.9 794.7 458.3 733 315.3 761.3C172.4 789.5 86.2 907.8 0 1026L0 0Z" fill="#1a1a1d"></path><path d="M684 0C603.6 56.9 523.2 113.8 504.4 208.9C485.7 304.1 528.7 437.5 483.7 483.7C438.6 529.8 305.5 488.7 210.2 507.5C114.9 526.4 57.5 605.2 0 684L0 0Z" fill="#ef6d65"></path><path d="M342 0C301.8 28.4 261.6 56.9 252.2 104.5C242.9 152.1 264.4 218.8 241.8 241.8C219.3 264.9 152.8 244.3 105.1 253.8C57.5 263.2 28.7 302.6 0 342L0 0Z" fill="#fdee48"></path></g></svg>