<svg xmlns="http://www.w3.org/2000/svg" width="1280" height="1064">
  <path fill="#012" d="M0 0h1280v1064H0z"/>
  <path fill="#042313" d="m635 0-.2 25.3c-.1 25.4-.5 76-2.5 126.7s-5.6 101.3-35.6 152-86.4 101.3-90.2 152c-3.8 50.7 44.8 101.3 73.3 152s36.9 101.3 34.5 152C612 810.7 599 861.3 565 912s-89 101.3-116.5 126.7L421 1064H0V0Z"/>
  <path fill="#0c3e1d" d="m520 0-3.7 25.3c-3.6 25.4-11 76-10.8 126.7.2 50.7 7.8 101.3-2 152s-37.2 101.3-53.7 152-22.1 101.3-31.3 152-21.8 101.3-7.3 152 56.1 101.3 78.8 152c22.7 50.7 26.3 101.3 28.2 126.7l1.8 25.3H0V0Z"/>
  <path fill="#205a23" d="m303 0 1.7 25.3c1.6 25.4 5 76 7.1 126.7 2.2 50.7 3.2 101.3 19.7 152s48.5 101.3 58.3 152c9.9 50.7-2.5 101.3-15.5 152s-26.6 101.3-24.6 152 19.6 101.3 8.3 152-51.7 101.3-71.8 126.7L266 1064H0V0Z"/>
  <path fill="#3b7724" d="m242 0-12.2 25.3c-12.1 25.4-36.5 76-47.3 126.7-10.8 50.7-8.2 101.3-2.8 152 5.3 50.7 13.3 101.3 12.5 152-.9 50.7-10.5 101.3-2.2 152s34.7 101.3 54 152c19.3 50.7 31.7 101.3 18.3 152-13.3 50.7-52.3 101.3-71.8 126.7L171 1064H0V0Z"/>
  <path fill="#5d951f" d="m134 0-.7 25.3c-.6 25.4-2 76-5.1 126.7-3.2 50.7-8.2 101.3-3.2 152 5 50.7 20 101.3 22.2 152 2.1 50.7-8.5 101.3-5.7 152s19.2 101.3 16.2 152-25.4 101.3-28.7 152c-3.3 50.7 12.3 101.3 20.2 126.7l7.8 25.3H0V0Z"/>
</svg>