<?xml version="1.0" standalone="no"?>
<!DOCTYPE svg PUBLIC "-//W3C//DTD SVG 20010904//EN"
 "http://www.w3.org/TR/2001/REC-SVG-20010904/DTD/svg10.dtd">
<svg version="1.0" xmlns="http://www.w3.org/2000/svg"
 width="512.000000pt" height="512.000000pt" viewBox="0 0 512.000000 512.000000"
 preserveAspectRatio="xMidYMid meet">

<g transform="translate(0.000000,512.000000) scale(0.100000,-0.100000)"
fill="#000000" stroke="none">
<path d="M564 4900 c-85 -11 -184 -45 -260 -91 -120 -72 -235 -227 -281 -374
-17 -57 -18 -141 -18 -1875 0 -1734 1 -1818 18 -1875 52 -168 183 -328 327
-398 161 -78 -35 -72 2210 -69 2223 3 2056 -2 2205 72 190 93 317 274 344 490
15 117 15 3443 0 3560 -27 216 -154 397 -344 490 -148 73 11 68 -2165 74
-1117 2 -1996 1 -2036 -4z m4134 -2582 l-3 -1523 -25 -45 c-14 -24 -45 -58
-68 -75 l-44 -30 -1997 0 -1997 0 -42 27 c-22 15 -54 49 -69 75 l-28 48 -3
1523 -2 1522 2140 0 2140 0 -2 -1522z"/>
<path d="M1280 1885 c0 -281 3 -297 59 -350 29 -27 38 -30 101 -30 63 0 71 3
100 30 53 50 55 58 60 263 l5 192 109 -197 c60 -109 120 -213 133 -231 68 -92
211 -82 264 18 17 31 19 61 19 297 l0 263 -425 0 -425 0 0 -255z"/>
<path d="M2352 1958 c3 -177 4 -185 32 -245 33 -73 112 -152 183 -186 46 -21
60 -22 296 -22 l248 0 39 41 c52 56 60 107 28 171 -42 85 -50 87 -283 93 -149
4 -208 9 -217 18 -8 8 -13 38 -13 80 l0 67 222 5 222 5 36 35 c33 32 60 93 49
112 -3 4 -194 8 -425 8 l-421 0 4 -182z"/>
<path d="M3790 1879 c0 -221 2 -266 16 -296 51 -106 212 -113 274 -11 19 31
20 51 20 301 l0 267 -155 0 -155 0 0 -261z"/>
</g>
</svg>
