<?xml version="1.0" standalone="no"?>
<!DOCTYPE svg PUBLIC "-//W3C//DTD SVG 20010904//EN"
 "http://www.w3.org/TR/2001/REC-SVG-20010904/DTD/svg10.dtd">
<svg version="1.0" xmlns="http://www.w3.org/2000/svg"
 width="965.000000pt" height="453.000000pt" viewBox="0 0 965.000000 453.000000"
 preserveAspectRatio="xMidYMid meet">

<g transform="translate(0.000000,453.000000) scale(0.100000,-0.100000)"
fill="#33e1ed" stroke="none">
<path d="M2405 4031 c-147 -43 -331 -127 -387 -176 -20 -18 -144 -88 -277
-154 l-240 -121 -26 44 c-19 33 -27 65 -34 132 -9 104 -23 135 -85 192 -61 56
-80 62 -194 62 -185 0 -300 -55 -266 -127 5 -10 9 -43 10 -73 3 -79 14 -172
24 -195 26 -64 40 -109 40 -135 0 -37 23 -50 89 -50 42 0 51 -3 51 -18 0 -20
-8 -26 -170 -111 l-125 -66 -20 23 c-20 23 -22 23 -85 11 -36 -7 -74 -19 -85
-26 -11 -7 -36 -43 -55 -79 l-35 -67 -220 -124 c-191 -107 -220 -126 -217
-145 1 -13 6 -26 10 -30 4 -4 101 42 214 102 223 118 251 129 264 108 5 -7 21
-62 36 -121 17 -67 42 -137 68 -185 47 -88 164 -255 205 -292 l27 -25 57 31
57 31 12 -127 c6 -69 16 -139 22 -154 20 -54 -44 -366 -154 -752 l-46 -161 0
-359 c0 -355 -11 -509 -38 -561 -12 -22 -191 -84 -311 -107 -40 -7 -77 -18
-83 -24 -14 -14 -1 -50 25 -64 24 -13 481 -25 541 -14 39 8 41 13 76 226 12
69 39 209 60 312 45 213 49 278 19 373 -14 46 -19 79 -14 104 8 43 68 175 83
185 7 4 15 -10 22 -36 6 -24 14 -52 17 -63 10 -37 44 -75 85 -96 22 -11 75
-57 117 -101 42 -44 157 -151 256 -237 244 -212 225 -191 225 -254 0 -89 -43
-190 -105 -247 -31 -28 -55 -71 -55 -96 0 -39 164 8 224 64 15 15 45 52 66 82
21 30 67 88 103 129 79 89 89 117 54 146 -14 11 -44 35 -66 53 -45 36 -155
162 -309 353 -55 70 -127 147 -158 170 -78 60 -92 82 -109 172 -23 120 -46
394 -35 422 5 13 28 51 51 85 43 63 99 205 99 250 0 14 -11 72 -25 130 -21 91
-25 129 -25 285 0 99 -4 218 -10 265 -5 47 -19 181 -30 297 -11 117 -25 225
-31 240 -5 15 -30 48 -55 75 -49 52 -53 69 -25 95 28 26 462 245 551 279 85
31 152 69 295 164 93 63 139 101 119 99 -5 0 -36 -8 -69 -18z m-1324 -787
c-36 -50 -66 -114 -122 -264 -22 -58 -50 -119 -61 -136 l-22 -32 -53 77 c-30
42 -52 83 -49 91 3 8 18 53 34 100 l29 85 134 71 c74 39 136 67 138 62 2 -5
-11 -29 -28 -54z"/>
<path d="M2598 3711 c-47 -11 -100 -27 -117 -37 -28 -17 -29 -20 -24 -66 3
-28 1 -53 -5 -61 -6 -7 -18 -48 -27 -91 -16 -79 -16 -79 11 -175 37 -134 38
-135 150 -127 l91 6 42 -45 c67 -73 71 -90 49 -198 -28 -133 -21 -179 42 -284
51 -81 52 -86 45 -138 l-6 -54 -66 -7 c-80 -8 -192 1 -239 21 -19 8 -49 25
-66 39 -37 27 -95 41 -132 32 -17 -4 -29 -19 -42 -51 -21 -57 -15 -200 16
-380 24 -144 28 -157 43 -152 16 5 33 68 59 224 l23 134 65 -6 c36 -4 117 -20
180 -35 63 -16 131 -32 152 -35 45 -8 48 -17 48 -163 l0 -114 -55 -61 c-83
-92 -297 -444 -348 -575 -27 -68 -21 -125 44 -409 62 -277 81 -429 65 -536 -7
-44 -10 -48 -81 -92 -41 -26 -109 -65 -151 -88 -43 -23 -79 -48 -82 -54 -5
-17 539 -19 569 -3 26 14 24 44 -7 137 -25 76 -26 82 -18 238 5 88 8 221 8
295 0 119 -3 146 -27 227 -16 52 -27 109 -25 130 3 35 10 43 93 105 l90 67 5
-92 c4 -75 10 -100 30 -132 13 -22 117 -134 230 -250 113 -116 220 -231 238
-257 96 -140 71 -318 -61 -416 -31 -24 -55 -48 -52 -53 4 -5 47 -9 97 -9 l90
0 144 143 c139 137 144 143 144 184 0 35 -5 45 -36 70 -100 79 -153 157 -230
338 -33 78 -49 100 -120 171 -45 45 -102 94 -127 108 -25 15 -49 35 -52 45 -3
10 11 67 31 127 30 90 37 128 41 219 5 95 8 113 28 135 65 74 84 128 95 284
10 127 10 128 92 268 25 42 54 108 66 145 28 91 56 248 48 276 -10 42 -67 116
-192 249 -69 73 -141 158 -161 188 -52 79 -117 144 -204 200 -91 61 -108 88
-145 234 -30 119 -49 151 -118 191 -59 35 -139 40 -248 16z m843 -1126 c22
-12 28 -21 24 -38 -2 -12 -9 -60 -15 -107 -16 -134 -32 -220 -41 -220 -5 0
-15 22 -23 50 -12 41 -13 72 -5 172 9 120 15 158 25 158 3 0 18 -7 35 -15z"/>
<path d="M4486 3326 c-76 -17 -110 -52 -119 -122 -4 -27 -14 -82 -24 -122 -15
-67 -16 -74 0 -107 26 -55 55 -68 123 -56 32 6 62 11 67 11 16 0 1 -109 -33
-230 -34 -120 -35 -143 -14 -345 l6 -60 -111 -170 c-217 -330 -284 -501 -247
-627 22 -75 49 -108 90 -108 57 0 146 80 146 131 0 23 -23 25 -40 4 -19 -23
-49 -18 -60 11 -6 14 -10 56 -10 93 0 76 -2 72 105 196 33 39 81 100 107 136
26 37 54 69 63 73 18 7 23 -3 71 -164 19 -63 46 -148 60 -188 15 -41 24 -82
20 -95 -3 -13 -37 -70 -75 -128 -38 -57 -98 -160 -135 -229 -64 -122 -66 -130
-85 -260 -46 -312 -90 -593 -96 -610 -3 -10 -23 -24 -43 -31 -20 -7 -65 -27
-98 -44 -44 -24 -81 -35 -133 -40 -47 -5 -74 -12 -78 -21 -10 -26 8 -65 38
-83 27 -17 53 -19 231 -18 l200 0 9 25 c5 13 16 56 25 95 9 40 43 139 75 220
61 156 83 239 94 371 10 114 30 179 74 244 55 81 125 157 138 149 7 -4 24 -60
39 -125 36 -158 63 -211 155 -302 124 -122 259 -272 286 -318 20 -35 24 -52
20 -88 -6 -54 -16 -66 -134 -161 -51 -40 -97 -82 -103 -93 -10 -19 -7 -20 104
-20 126 0 111 -7 186 83 24 27 47 41 89 53 75 22 111 41 111 60 0 8 -13 34
-29 57 -48 70 -97 177 -126 272 -58 193 -83 235 -195 329 -44 36 -87 80 -95
97 -11 21 -19 84 -26 207 -14 224 -10 261 28 315 17 23 40 62 53 86 29 58 24
114 -24 242 l-36 96 20 58 c11 32 20 78 20 102 0 75 -30 323 -51 423 -11 52
-26 132 -33 177 -13 79 -16 85 -67 141 -30 32 -89 118 -133 191 -85 144 -124
194 -167 217 -34 17 -150 17 -233 0z"/>
<path d="M6017 3065 c-77 -40 -177 -131 -177 -162 0 -12 -16 -61 -35 -107 -19
-47 -35 -92 -35 -100 0 -8 13 -30 30 -49 50 -58 148 -73 258 -38 68 21 92 14
92 -25 0 -14 -14 -79 -30 -146 -17 -66 -34 -157 -37 -201 l-6 -82 -106 -105
c-164 -163 -281 -296 -292 -332 -5 -18 -9 -54 -9 -79 0 -40 6 -53 41 -93 44
-50 85 -76 119 -76 39 0 35 29 -9 66 -44 38 -48 49 -29 89 15 34 34 32 53 -6
9 -17 19 -28 23 -24 4 3 10 45 13 93 7 83 9 88 41 115 56 48 210 157 222 157
27 0 156 -285 156 -343 0 -46 -62 -130 -221 -299 -135 -145 -154 -171 -170
-229 -10 -36 -9 -61 4 -134 9 -50 23 -146 32 -215 8 -69 27 -181 41 -250 24
-117 25 -128 11 -162 -20 -47 -81 -83 -176 -103 -93 -19 -141 -42 -141 -66 0
-37 32 -41 242 -34 247 9 240 6 250 132 3 48 7 178 7 288 1 172 -2 210 -19
270 -11 38 -20 90 -20 114 0 43 3 48 93 136 118 116 213 195 234 195 24 0 11
-143 -27 -304 -16 -72 -30 -156 -30 -188 0 -49 4 -62 30 -91 55 -63 209 -129
404 -173 60 -14 117 -29 128 -35 25 -13 24 -73 -2 -143 -19 -49 -60 -188 -60
-201 0 -9 161 -5 180 5 30 16 40 72 47 261 l6 177 -25 24 c-18 19 -40 27 -86
32 -101 11 -145 30 -267 110 -132 87 -126 68 -63 205 22 47 53 120 70 161 16
41 47 108 69 149 37 70 39 79 39 160 0 63 -7 104 -23 153 l-23 67 23 38 c28
46 73 187 73 231 0 39 -9 59 -91 207 -104 189 -128 240 -144 312 -28 123 -38
135 -193 227 -70 42 -104 86 -156 200 -47 102 -101 182 -145 212 -28 19 -48
24 -96 24 -33 0 -73 -7 -88 -15z"/>
<path d="M7865 2151 c-66 -24 -105 -44 -133 -71 -19 -18 -23 -29 -18 -55 6
-29 1 -40 -39 -86 -57 -67 -62 -114 -15 -161 l30 -30 143 3 142 4 -3 -25 c-2
-14 -6 -129 -9 -257 l-5 -232 -72 -37 c-105 -55 -162 -93 -251 -169 -44 -38
-110 -90 -146 -116 -111 -81 -179 -177 -178 -249 2 -93 28 -123 42 -50 10 51
30 48 37 -6 9 -66 40 -92 40 -33 l0 30 26 -20 c35 -27 44 -19 44 36 0 39 6 52
38 88 20 24 46 58 57 76 15 25 41 44 99 72 43 21 80 36 82 34 5 -5 -106 -360
-134 -433 -25 -62 -52 -199 -52 -260 0 -51 8 -56 97 -69 40 -5 57 -3 75 9 12
9 30 16 40 16 31 0 20 29 -22 55 -39 25 -48 46 -31 74 7 10 16 5 41 -23 40
-44 61 -47 55 -8 -16 95 -28 182 -28 213 -1 41 -5 37 272 328 l156 164 3 123
4 123 35 12 c20 6 55 31 79 54 l43 43 61 -19 c33 -10 70 -24 82 -30 30 -16
118 -99 118 -112 0 -5 -29 -60 -64 -121 -35 -61 -79 -141 -97 -178 l-33 -68
18 -127 c10 -71 20 -185 23 -254 5 -117 4 -128 -14 -146 -11 -11 -77 -39 -147
-62 -229 -74 -223 -81 72 -81 272 0 272 0 272 88 0 31 9 103 20 160 24 122 26
243 5 302 -24 69 -20 89 21 106 19 8 47 17 62 20 25 5 28 2 40 -40 7 -27 26
-59 46 -79 42 -42 228 -158 353 -221 51 -25 100 -57 108 -70 15 -22 14 -28
-15 -89 -28 -59 -36 -68 -83 -90 -29 -14 -60 -28 -70 -31 -11 -3 -17 -13 -15
-23 3 -16 17 -18 103 -21 126 -4 146 5 186 77 18 31 52 77 76 102 53 55 53 54
-34 161 -86 106 -241 240 -340 293 -29 15 -53 33 -53 39 0 21 39 74 125 172
48 55 91 109 96 122 12 31 11 128 -1 172 -13 48 -41 84 -173 224 -221 236
-456 424 -592 475 -31 12 -91 26 -134 32 -102 13 -144 28 -243 86 -45 27 -102
57 -126 66 -55 22 -134 21 -197 -2z"/>
</g>
</svg>
