<?xml version="1.0" standalone="no"?>
<!DOCTYPE svg PUBLIC "-//W3C//DTD SVG 20010904//EN"
 "http://www.w3.org/TR/2001/REC-SVG-20010904/DTD/svg10.dtd">
<svg version="1.0" xmlns="http://www.w3.org/2000/svg"
 width="512.000000pt" height="512.000000pt" viewBox="0 0 512.000000 512.000000"
 preserveAspectRatio="xMidYMid meet">

<g transform="translate(0.000000,512.000000) scale(0.100000,-0.100000)"
fill="#000000" stroke="none">
<path d="M2485 5110 c-81 -18 -129 -42 -466 -237 -189 -110 -614 -354 -943
-544 -661 -379 -691 -400 -748 -517 l-33 -67 0 -1185 0 -1186 38 -77 c26 -53
53 -90 86 -118 38 -33 631 -379 1826 -1065 162 -93 240 -119 339 -111 39 3 96
15 126 26 30 11 480 265 1000 564 1024 589 1029 593 1082 707 15 30 31 82 37
114 15 82 15 2209 0 2290 -16 89 -42 139 -111 210 -59 61 -119 97 -1009 609
-520 299 -971 554 -1002 565 -65 25 -165 35 -222 22z m295 -1051 c316 -44 618
-196 850 -429 101 -101 253 -301 239 -315 -10 -9 -650 -375 -657 -375 -4 0
-20 20 -36 45 -38 61 -132 154 -202 200 -217 144 -502 163 -739 50 -193 -92
-343 -273 -401 -485 -25 -90 -25 -290 0 -380 72 -260 257 -451 516 -532 63
-19 96 -23 210 -23 153 0 230 18 351 82 113 58 241 180 298 280 7 13 71 -21
334 -173 180 -104 327 -193 327 -198 0 -5 -25 -45 -54 -90 -241 -358 -622
-595 -1054 -657 -110 -15 -402 -6 -502 16 -116 25 -271 80 -373 131 -741 370
-1048 1253 -697 2002 84 179 235 376 382 500 348 292 764 413 1208 351z m1270
-1199 l0 -60 90 0 90 0 0 60 0 60 75 0 75 0 0 -60 0 -60 60 0 60 0 0 -80 0
-80 -60 0 -60 0 0 -85 0 -85 60 0 60 0 0 -80 0 -80 -60 0 -60 0 0 -60 0 -60
-75 0 -75 0 0 60 0 60 -90 0 -90 0 0 -60 0 -60 -75 0 -75 0 0 60 0 60 -60 0
-60 0 0 80 0 80 60 0 60 0 0 85 0 85 -60 0 -60 0 0 80 0 80 60 0 60 0 0 60 0
60 75 0 75 0 0 -60z"/>
<path d="M4050 2555 l0 -85 90 0 90 0 0 85 0 85 -90 0 -90 0 0 -85z"/>
</g>
</svg>
